# xmcd
#
# Track frame offsets:
#	150
#	23276
#	42174
#	58386
#	82401
#	98648
#	115238
#	131027
#	155036
#	170662
#	189560
#
# Disc length: 2822 seconds
#
# Revision: 0
# Processed by: cddbd v1.5.2PL0 Copyright (c) Steve Scherf et al.
# Submitted via: EasyCDDAExtractor 11.0.3.1
#
DISCID=960b040b
DTITLE=Martina Mcbride - Live In Concert (Bonus DVD) [cd1]
DYEAR=2008
DGENRE=Country
TTITLE0=Anyway
TTITLE1=When God-Fearin' Women Get The Blues
TTITLE2=Wild Angels
TTITLE3=My Baby Loves Me
TTITLE4=Tryin' To Find A Reason
TTITLE5=How I Feel
TTITLE6=Happy Girl
TTITLE7=(I Never Promised You A) Rose Garden
TTITLE8=You Ain't Woman Enough
TTITLE9=Help Me Make It Through The Night
TTITLE10=Where Would You Be
EXTD=
EXTT0=
EXTT1=
EXTT2=
EXTT3=
EXTT4=
EXTT5=
EXTT6=
EXTT7=
EXTT8=
EXTT9=
EXTT10=
PLAYORDER=
